<?xml version="1.0" encoding="UTF-8"?>
<svg version="1.1" xmlns="http://www.w3.org/2000/svg" width="824" height="899">
<path d="M0 0 C7.38870383 5.53573735 12.66775008 12.72312817 14.75 21.8125 C16.37222976 35.68500124 13.6792146 45.60966422 5.2109375 56.76953125 C0.74610281 62.29033478 -3.93415258 67.61843162 -8.62158203 72.95019531 C-11.11026992 75.79632892 -13.55958519 78.67494995 -16 81.5625 C-16.67748291 82.36385376 -16.67748291 82.36385376 -17.36865234 83.18139648 C-20.1747512 86.51114349 -22.94035159 89.87154997 -25.6875 93.25 C-29.64508188 98.11379025 -33.71542446 102.87131231 -37.80834961 107.62084961 C-40.83945289 111.14548919 -43.81985316 114.70289882 -46.75 118.3125 C-50.6837857 123.15846789 -54.73447759 127.89348528 -58.80859375 132.62109375 C-61.83958284 136.14567903 -64.81992581 139.70298832 -67.75 143.3125 C-71.6837857 148.15846789 -75.73447759 152.89348528 -79.80859375 157.62109375 C-82.83958284 161.14567903 -85.81992581 164.70298832 -88.75 168.3125 C-92.6837857 173.15846789 -96.73447759 177.89348528 -100.80859375 182.62109375 C-103.83958284 186.14567903 -106.81992581 189.70298832 -109.75 193.3125 C-113.6837857 198.15846789 -117.73447759 202.89348528 -121.80859375 207.62109375 C-124.83958284 211.14567903 -127.81992581 214.70298832 -130.75 218.3125 C-134.6837857 223.15846789 -138.73447759 227.89348528 -142.80859375 232.62109375 C-145.83958284 236.14567903 -148.81992581 239.70298832 -151.75 243.3125 C-155.6837857 248.15846789 -159.73447759 252.89348528 -163.80859375 257.62109375 C-166.83958284 261.14567903 -169.81992581 264.70298832 -172.75 268.3125 C-176.6837857 273.15846789 -180.73447759 277.89348528 -184.80859375 282.62109375 C-187.83958284 286.14567903 -190.81992581 289.70298832 -193.75 293.3125 C-197.6837857 298.15846789 -201.73447759 302.89348528 -205.80859375 307.62109375 C-208.83958284 311.14567903 -211.81992581 314.70298832 -214.75 318.3125 C-219.69346849 324.3974603 -224.79866123 330.33707133 -229.92529297 336.26757812 C-231.04887008 337.57793491 -232.15352508 338.90447963 -233.25390625 340.234375 C-240.8515045 349.3303395 -248.61713496 355.00944279 -260.609375 356.125 C-271.14924527 356.49320507 -280.16493571 354.34363903 -288.40625 347.5546875 C-297.10305519 339.33694361 -301.26250287 329.76444543 -301.75 317.75 C-300.99256161 300.28301167 -289.27673866 288.82182433 -278.37890625 276.40625 C-275.00759655 272.55564078 -271.77922911 268.59813521 -268.55859375 264.62109375 C-265.83655909 261.3095152 -263.04860269 258.05936941 -260.25 254.8125 C-256.69542508 250.687857 -253.18207702 246.54042096 -249.75 242.3125 C-245.8162143 237.46653211 -241.76552241 232.73151472 -237.69140625 228.00390625 C-234.66041716 224.47932097 -231.68007419 220.92201168 -228.75 217.3125 C-224.8162143 212.46653211 -220.76552241 207.73151472 -216.69140625 203.00390625 C-213.66041716 199.47932097 -210.68007419 195.92201168 -207.75 192.3125 C-203.8162143 187.46653211 -199.76552241 182.73151472 -195.69140625 178.00390625 C-192.66041716 174.47932097 -189.68007419 170.92201168 -186.75 167.3125 C-182.8162143 162.46653211 -178.76552241 157.73151472 -174.69140625 153.00390625 C-171.66041716 149.47932097 -168.68007419 145.92201168 -165.75 142.3125 C-161.8162143 137.46653211 -157.76552241 132.73151472 -153.69140625 128.00390625 C-150.66041716 124.47932097 -147.68007419 120.92201168 -144.75 117.3125 C-140.8162143 112.46653211 -136.76552241 107.73151472 -132.69140625 103.00390625 C-129.66041716 99.47932097 -126.68007419 95.92201168 -123.75 92.3125 C-119.8162143 87.46653211 -115.76552241 82.73151472 -111.69140625 78.00390625 C-108.66041716 74.47932097 -105.68007419 70.92201168 -102.75 67.3125 C-98.8162143 62.46653211 -94.76552241 57.73151472 -90.69140625 53.00390625 C-87.66041716 49.47932097 -84.68007419 45.92201168 -81.75 42.3125 C-77.81853235 37.46938767 -73.77120602 32.73625819 -69.69799805 28.01269531 C-66.59560475 24.40684997 -63.5553422 20.76046208 -60.5625 17.0625 C-44.92208072 -2.07866294 -24.17679334 -15.75808852 0 0 Z " fill="#FF8001" transform="translate(809.25,6.1875)"/>
<path d="M0 0 C2.06841782 1.44749698 3.92490994 2.9825362 5.79296875 4.6796875 C6.39882813 5.21980469 7.0046875 5.75992187 7.62890625 6.31640625 C11.31244943 10.02407744 13.4454058 13.81374419 15.34375 18.6640625 C15.5921312 19.29853806 15.84051239 19.93301361 16.09642029 20.5867157 C20.44142239 31.80497347 24.49880085 43.13499278 28.60926056 54.44072723 C29.62205056 57.22506874 30.63673943 60.00871672 31.65140915 62.79237366 C39.04081556 83.06548393 46.3842041 103.35513715 53.71661377 123.64892578 C60.57966187 142.63874137 67.53824525 161.59187191 74.53863525 180.53143311 C81.61608836 199.68690383 88.57511728 218.88288832 95.48322296 238.09983444 C102.43959071 257.44971634 109.48057837 276.76602712 116.60546875 296.0546875 C119.58530559 304.13032701 122.56336873 312.20662091 125.54064941 320.28320312 C126.38037866 322.56067914 127.22047069 324.83802143 128.06091309 327.11523438 C130.50314013 333.73394514 132.93647193 340.35578992 135.35629272 346.98272705 C136.09432066 348.9994865 136.83545319 351.01511309 137.57998657 353.02947998 C149.36938126 384.94199407 149.36938126 384.94199407 142.0859375 401.296875 C136.73712211 411.1542085 129.62112727 417.38941184 119.01171875 420.9453125 C108.07273526 423.4411 97.55153919 422.41830952 87.79296875 416.6796875 C77.92939142 410.09282399 73.44970693 399.72782691 69.58984375 388.890625 C69.21301453 387.85980804 68.8361853 386.82899109 68.44793701 385.76693726 C67.6392708 383.55205022 66.83504589 381.33553738 66.03491211 379.11755371 C64.78688801 375.66285521 63.52375159 372.21405395 62.25585938 368.76660156 C59.7495532 361.94809639 57.2579396 355.12429691 54.77007675 348.29904938 C54.02884511 346.26594821 53.28715019 344.23301661 52.5453186 342.20013428 C44.88358491 321.20361315 37.26523647 300.19164902 29.6673584 279.17193604 C23.39775765 261.82982162 17.07188848 244.50942324 10.69735718 227.20562744 C4.50238358 210.38525821 -1.61520232 193.53766507 -7.70703125 176.6796875 C-13.82129639 159.76039832 -19.95979972 142.85082603 -26.17431641 125.96807861 C-27.26171743 123.01341903 -28.34786953 120.05830346 -29.43359375 117.10302734 C-30.16144965 115.12206712 -30.88931429 113.14111011 -31.6171875 111.16015625 C-31.9802298 110.17208984 -32.34327209 109.18402344 -32.71731567 108.16601562 C-35.00414789 101.94466866 -37.29740787 95.72572693 -39.59428692 89.50808239 C-41.68844483 83.83705702 -43.77253164 78.16236758 -45.85397339 72.48666382 C-46.7460138 70.05922021 -47.64122594 67.63293946 -48.53982544 65.20791626 C-49.79141122 61.82911491 -51.03165929 58.44634545 -52.26953125 55.0625 C-52.63948715 54.07192093 -53.00944305 53.08134186 -53.39060974 52.06074524 C-57.59671456 40.47948822 -60.38454121 28.64203313 -55.39453125 16.8671875 C-50.19393715 6.44749184 -43.279041 -0.4492715 -32.20703125 -4.3203125 C-21.55844457 -7.71782731 -9.40237311 -5.6247825 0 0 Z " fill="#FFB301" transform="translate(571.20703125,477.3203125)"/>
<path d="M0 0 C1.55245847 0.27480849 3.10509286 0.54862466 4.6578846 0.82154369 C8.88968645 1.56818144 13.11891839 2.32855289 17.3478539 3.09123397 C21.91763113 3.91273958 26.48975959 4.72095758 31.06163025 5.53071594 C38.96649138 6.93256911 46.86992288 8.34224807 54.7723999 9.75747681 C67.25624012 11.99310245 79.74248767 14.21507616 92.22924805 16.43432617 C96.49915129 17.1933116 100.76904601 17.95234495 105.03894043 18.71138 C106.10494217 18.90085762 107.1709439 19.09033523 108.26924872 19.28555459 C114.8182671 20.44975414 121.36703599 21.61534608 127.91562343 22.7819671 C157.6845893 28.08504403 187.46265453 33.33369012 217.25008583 38.53203201 C223.6198005 39.64364408 229.98926761 40.75666974 236.35868835 41.8699646 C240.51467311 42.59628587 244.67066523 43.32256501 248.82666016 44.04882812 C250.35061002 44.31514821 250.35061002 44.31514821 251.90534675 44.5868485 C263.97262672 46.69548735 276.0407087 48.7994208 288.10993963 50.89686424 C295.67349852 52.21179513 303.23597542 53.53283374 310.79765981 54.85850114 C315.15072372 55.62142169 319.50423038 56.3815251 323.85911369 57.13399696 C327.84952722 57.82349437 331.83850333 58.52076781 335.82651722 59.22400761 C337.26132002 59.47562046 338.6966148 59.72444893 340.13245857 59.97005177 C369.45141133 64.99149181 369.45141133 64.99149181 378.55883789 76.22851562 C385.00856423 85.67019836 387.26033903 95.80386357 385.62133789 107.10351562 C383.45915191 117.22254603 377.39978365 125.64669717 369.12133789 131.72851562 C355.13686065 140.51875846 339.6809131 137.28727569 324.43408203 134.55859375 C322.64431005 134.24473316 320.85440639 133.93162268 319.06438255 133.61920166 C314.21396797 132.77044701 309.36546328 131.91120881 304.51723361 131.05007362 C299.35811267 130.13560665 294.19727948 129.23090293 289.03663635 128.32507324 C279.31244805 126.61673227 269.58978799 124.89985601 259.86769325 123.17964506 C249.75220912 121.39018236 239.63517959 119.60955902 229.5178802 117.83039284 C208.16951414 114.07585255 186.82378497 110.3064492 165.47872794 106.53314877 C158.63676232 105.32365291 151.79472801 104.11454642 144.95263672 102.90576172 C143.50134922 102.64936181 143.50134922 102.64936181 142.02074277 102.3877821 C137.13190866 101.52410427 132.2430483 100.66057529 127.35415077 99.79725647 C125.39907368 99.45200078 123.44399747 99.10674016 121.48892212 98.76147461 C120.52195959 98.59071065 119.55499706 98.41994669 118.55873263 98.24400806 C112.75981554 97.21974326 106.96115004 96.1940676 101.16268265 95.16726017 C81.03410007 91.6031117 60.90149283 88.06483532 40.75839937 84.58354092 C34.4256249 83.48800988 28.09373817 82.38735686 21.76184922 81.28672075 C15.73958593 80.24063299 9.71587755 79.20345226 3.69091463 78.17303371 C-0.0228296 77.53574035 -3.73507844 76.89004909 -7.44697881 76.24211121 C-9.15765188 75.94529748 -10.86893419 75.65196905 -12.58086848 75.36251831 C-27.78857834 72.78835128 -42.32980802 70.00801746 -52.12866211 57.10351562 C-59.03356634 46.94520721 -60.84332795 37.5746578 -58.54663086 25.47460938 C-55.84834468 15.27960693 -50.11246862 7.39998231 -41.19506836 1.80273438 C-28.18742115 -5.25261347 -13.91792617 -2.54089751 0 0 Z " fill="#FFCC01" transform="translate(59.753662109375,328.521484375)"/>
<path d="M0 0 C7.2234107 6.69807174 11.62024333 15.60986366 12.203125 25.41796875 C12.42961235 43.63132671 5.25369532 53.41085991 -6.24609375 66.78125 C-8.69271645 69.6276145 -11.07441561 72.52117081 -13.4375 75.4375 C-17.39508188 80.30129025 -21.46542446 85.05881231 -25.55834961 89.80834961 C-28.58945289 93.33298919 -31.56985316 96.89039882 -34.5 100.5 C-38.4337857 105.34596789 -42.48447759 110.08098528 -46.55859375 114.80859375 C-49.58958284 118.33317903 -52.56992581 121.89048832 -55.5 125.5 C-59.0284796 129.83977235 -62.61861081 134.12134094 -66.25 138.375 C-66.74564453 138.95830078 -67.24128906 139.54160156 -67.75195312 140.14257812 C-75.54788889 149.23958527 -83.74938119 157.74501884 -96 160 C-104.62374144 160.49009241 -113.04787489 160.82696021 -121 157 C-122.175625 156.443125 -123.35125 155.88625 -124.5625 155.3125 C-133.02557828 150.10898319 -139.21313043 142.21576627 -141.61328125 132.5234375 C-143.3031086 121.49688734 -141.47350018 111.66449279 -134.9921875 102.5390625 C-131.47790277 98.06007216 -127.75196817 93.76727242 -124.01171875 89.4765625 C-121.44718975 86.53165651 -118.95764286 83.53512178 -116.5 80.5 C-112.5662143 75.65403211 -108.51552241 70.91901472 -104.44140625 66.19140625 C-101.41041716 62.66682097 -98.43007419 59.10951168 -95.5 55.5 C-91.5662143 50.65403211 -87.51552241 45.91901472 -83.44140625 41.19140625 C-80.41041716 37.66682097 -77.43007419 34.10951168 -74.5 30.5 C-69.12679571 23.89056937 -63.58584822 17.42993195 -58 11 C-57.16855469 10.04222656 -56.33710938 9.08445312 -55.48046875 8.09765625 C-40.15342224 -9.26603358 -19.56187755 -15.950454 0 0 Z " fill="#FFFFFF" transform="translate(477,508)"/>
<path d="M0 0 C3.42455349 0.61278903 6.85159256 1.21138856 10.27827239 1.81215 C16.02301991 2.82155316 21.76575068 3.84183841 27.50735259 4.86897373 C34.11582011 6.05105988 40.7270966 7.21625131 47.34014946 8.3723886 C53.74691061 9.49281657 60.15160596 10.62465052 66.5554235 11.76177311 C69.26144266 12.24211511 71.9680871 12.7186661 74.67533088 13.1920557 C78.46182232 13.85676693 82.24576664 14.53447258 86.02932525 15.21565342 C87.13348281 15.40698856 88.23764037 15.59832371 89.37525725 15.79545689 C102.48377449 18.1892983 114.02700094 21.90365049 121.93630767 33.25178623 C127.41917982 42.2485433 128.47265517 51.72098542 126.28005767 61.96272373 C123.5443591 71.51031174 118.09978921 80.16888464 109.59646392 85.51350498 C95.22810447 92.99664805 83.18957735 91.87246366 67.69021392 89.16584873 C66.10808615 88.89504024 64.52585358 88.62484341 62.94352508 88.3552103 C59.55956133 87.77698615 56.17649441 87.19384641 52.79403472 86.60688877 C48.35674664 85.83691086 43.91813763 85.07490062 39.47902274 84.31553364 C30.27223104 82.74042746 21.06870023 81.14739709 11.86799979 79.53709126 C7.13533508 78.70889664 2.40203073 77.88483442 -2.33297944 77.07014561 C-7.03152627 76.26165595 -11.72824873 75.44326296 -16.42385888 74.61789417 C-18.18092115 74.31070567 -19.93857628 74.0068855 -21.69685769 73.70675373 C-37.71683881 70.96763576 -52.89130628 67.96489511 -62.99728608 54.06037998 C-69.28309909 44.15002025 -71.39638454 32.89663734 -69.00509858 21.27912998 C-68.30966321 19.30283625 -67.49524885 17.53251655 -66.50119233 15.68928623 C-66.17248139 15.03702061 -65.84377046 14.38475498 -65.50509858 13.71272373 C-61.13450382 5.87892412 -54.11335684 -0.80973868 -45.48475862 -3.60594082 C-30.7612 -7.08391477 -14.5136763 -2.60767412 0 0 Z " fill="#FF9901" transform="translate(656.5011923313141,366.31071376800537)"/>
<path d="M0 0 C6.85038646 5.60361612 10.04811253 12.6707108 13.24609375 20.73046875 C13.58845566 21.59066116 13.93081757 22.45085358 14.28355408 23.33711243 C19.16704832 35.75320985 23.58912033 48.3433206 28.06710052 60.90974426 C30.09135529 66.5861772 32.12458923 72.25940667 34.15671539 77.93302536 C34.66354066 79.34818073 35.17022947 80.76338498 35.6767807 82.17863846 C40.87174963 96.69171649 46.15713505 111.17094768 51.49633789 125.6315918 C51.78288742 126.40985825 52.06943695 127.18812469 52.3646698 127.98997498 C52.88691391 129.40810928 53.41085746 130.8256196 53.93696594 132.24232483 C57.7887527 142.70743258 58.42649351 153.39643227 53.99609375 163.8515625 C49.30331486 173.11943303 42.2985565 179.00937344 32.41796875 182.484375 C20.72621732 185.12404625 8.546143 184.20832907 -1.70703125 177.76953125 C-15.27968132 167.93329894 -19.76073762 152.11318602 -25.15625 136.9375 C-25.83392785 135.04939059 -26.51160811 133.16128204 -27.18939686 131.27321243 C-27.89700171 129.29968765 -28.60255604 127.32544149 -29.3074646 125.35095215 C-31.50022408 119.20939432 -33.70550782 113.07233031 -35.91020775 106.93505096 C-36.39949492 105.57282928 -36.88862194 104.21055007 -37.37758827 102.8482132 C-42.21330392 89.37558746 -47.13989727 75.93757013 -52.125 62.51953125 C-58.54366422 45.22618362 -63.67016021 30.94268712 -55.75 13.3125 C-50.79927648 3.84575063 -42.65747178 -2.92879832 -32.5 -6.26171875 C-20.64987639 -8.50419006 -9.98337955 -6.73690462 0 0 Z " fill="#FF6601" transform="translate(411.25,156.6875)"/>
</svg>
